<svg id="icons" enable-background="new 0 0 64 64" height="512" viewBox="0 0 64 64" width="512" xmlns="http://www.w3.org/2000/svg"><path d="m.78 43.97 13.224 3.087v11.833c-.003.033-.02.063-.02.097 0 2.214 1.802 4.016 4.016 4.016.021 0 .038-.011.059-.012h25.889c.021.001.038.012.059.012 2.214 0 4.016-1.802 4.016-4.016 0-.048-.021-.09-.027-.136v-11.795l12.012-2.803v4.612l-1.96 6.866c-.014.047-.005.093-.011.141-.007.046-.027.086-.027.134 0 .021.011.038.012.059.005.071.022.137.041.204.017.06.029.118.057.172.028.058.066.105.105.156.039.052.074.104.123.146.045.041.098.069.15.102.06.036.116.071.183.095.02.007.034.022.055.028.091.025.182.037.272.038h.002 3.984.002c.09-.001.181-.012.271-.038.021-.006.035-.021.055-.028.066-.023.123-.058.183-.094.053-.032.106-.062.151-.103.048-.043.084-.093.122-.145.039-.052.078-.1.106-.157.026-.055.04-.114.057-.175.019-.066.036-.13.04-.2.002-.021.013-.039.013-.061 0-.049-.021-.09-.027-.137-.007-.046.002-.091-.011-.137l-1.948-6.866v-5.87c0-.229-.09-.431-.22-.6-.007-.009-.012-.02-.02-.028-.055-.066-.118-.12-.188-.171-.03-.022-.061-.043-.093-.063-.062-.034-.124-.061-.193-.081-.026-.009-.047-.025-.074-.031l-30-7c-.15-.035-.305-.035-.455 0l-29.985 7.001c-.452.105-.772.509-.772.974s.32.868.772.974zm45.232 15.116c-.053 1.056-.916 1.9-1.981 1.914-.017-.001-.029-.01-.046-.01h-25.985c-.014 0-.025.007-.039.008-1.067-.021-1.93-.875-1.969-1.938.001-.021.012-.038.012-.06v-11.477l14.761 3.446c.075.018.151.026.228.026s.152-.009.228-.026l14.774-3.447v11.478c-.001.03.014.056.017.086zm14.991-6.426.666 2.346h-1.335zm-30.011-15.639 25.598 5.975-25.598 5.973-25.586-5.973z"/><path d="m43.008 57.008h-24c-.553 0-1 .447-1 1s.447 1 1 1h24c.553 0 1-.447 1-1s-.447-1-1-1z"/><path d="m30.999.998c-8.271 0-15 6.729-15 15 0 7.312 5.167 13.461 12.333 14.745l1.96 1.96c.195.195.451.293.707.293s.512-.098.707-.293l1.96-1.96c7.166-1.284 12.333-7.434 12.333-14.745 0-8.271-6.728-15-15-15zm2.03 27.824c-.209.033-.402.132-.552.281l-1.479 1.479-1.479-1.479c-.149-.149-.343-.248-.552-.281-6.356-1-10.97-6.394-10.97-12.824 0-7.168 5.832-13 13-13s13 5.832 13 13c.002 6.431-4.611 11.824-10.968 12.824z"/><path d="m26.694 12.285c-.391-.391-1.023-.391-1.414 0l-3 3c-.391.391-.391 1.023 0 1.414l3 3c.195.195.451.293.707.293s.512-.098.707-.293c.391-.391.391-1.023 0-1.414l-2.293-2.293 2.293-2.293c.391-.39.391-1.023 0-1.414z"/><path d="m36.701 12.285c-.391-.391-1.023-.391-1.414 0s-.391 1.023 0 1.414l2.293 2.293-2.293 2.293c-.391.391-.391 1.023 0 1.414.195.195.451.293.707.293s.512-.098.707-.293l3-3c.391-.391.391-1.023 0-1.414z"/><path d="m33.361 10.062c-.51-.204-1.095.043-1.3.558l-4.001 10.004c-.205.513.045 1.095.558 1.3.121.049.247.071.371.071.396 0 .772-.237.929-.629l4.001-10.004c.205-.513-.045-1.095-.558-1.3z"/></svg>